<svg width="20" height="20" viewBox="0 0 20 20" fill="none" xmlns="http://www.w3.org/2000/svg">
<path d="M0 0H10C15.5228 0 20 4.47715 20 10V20H10C4.47715 20 0 15.5228 0 10V0Z" fill="#FF5555"/>
<path fillRule="evenodd" clipRule="evenodd" d="M14.2891 12.1985L14.4689 10.9059C14.5243 10.5082 14.5749 10.1447 14.6199 9.81116C14.7123 9.12578 14.7585 8.78309 14.5536 8.54869C14.3487 8.31429 13.9965 8.31429 13.2921 8.31429H6.70792C6.00353 8.31429 5.65134 8.31429 5.44643 8.54869C5.24151 8.78309 5.28773 9.12578 5.38015 9.81115C5.42514 10.1448 5.4757 10.5081 5.53107 10.9059L5.71096 12.1985C5.90647 13.6034 6.00422 14.3058 6.21149 14.8699C6.59909 15.9249 7.2691 16.7107 8.06879 17.0481C8.49644 17.2286 8.99763 17.2286 10 17.2286C11.0024 17.2286 11.5036 17.2286 11.9312 17.0481C12.7309 16.7107 13.4009 15.9249 13.7885 14.8699C13.9958 14.3058 14.0935 13.6034 14.2891 12.1985ZM9.14286 9.68571C9.14286 9.40168 8.9126 9.17143 8.62857 9.17143C8.34454 9.17143 8.11429 9.40168 8.11429 9.68571V15.1714C8.11429 15.4555 8.34454 15.6857 8.62857 15.6857C8.9126 15.6857 9.14286 15.4555 9.14286 15.1714V9.68571ZM11.8857 9.68571C11.8857 9.40168 11.6555 9.17143 11.3714 9.17143C11.0874 9.17143 10.8571 9.40168 10.8571 9.68571V15.1714C10.8571 15.4555 11.0874 15.6857 11.3714 15.6857C11.6555 15.6857 11.8857 15.4555 11.8857 15.1714V9.68571Z" fill="white"/>
<path d="M10 3C8.20113 3 6.74286 4.45827 6.74286 6.25714V6.42857H4.51429C4.23025 6.42857 4 6.65882 4 6.94286C4 7.22689 4.23025 7.45714 4.51429 7.45714H15.4857C15.7697 7.45714 16 7.22689 16 6.94286C16 6.65882 15.7697 6.42857 15.4857 6.42857H13.2571V6.25714C13.2571 4.45827 11.7989 3 10 3Z" fill="white"/>
</svg>
