<svg width="30" height="30" viewBox="0 0 30 30" fill="none" xmlns="http://www.w3.org/2000/svg">
<mask id="mask0_1036_11074" style="mask-type:alpha" maskUnits="userSpaceOnUse" x="0" y="0" width="30" height="30">
<path d="M30 15C30 6.71573 23.2843 0 15 0C6.71573 0 0 6.71573 0 15C0 23.2843 6.71573 30 15 30C23.2843 30 30 23.2843 30 15Z" fill="#FFC9A2"/>
</mask>
<g mask="url(#mask0_1036_11074)">
<path d="M30 15C30 6.71573 23.2843 0 15 0C6.71573 0 0 6.71573 0 15C0 23.2843 6.71573 30 15 30C23.2843 30 30 23.2843 30 15Z" fill="#FFC9A2"/>
<path d="M8.4375 19.6875C9.73192 19.6875 10.7812 18.6382 10.7812 17.3438C10.7812 16.0493 9.73192 15 8.4375 15C7.14308 15 6.09375 16.0493 6.09375 17.3438C6.09375 18.6382 7.14308 19.6875 8.4375 19.6875Z" fill="#836055"/>
<path d="M8.4375 19.2188H16.4062V30.8766C16.4062 30.8766 14.6986 31.875 12.4219 31.875C10.1452 31.875 8.4375 30.2452 8.4375 30.2452V19.2188Z" fill="#836055"/>
<path d="M16.4063 25.2506C16.4063 27.9009 14.7656 28.1249 13.3045 27.6496C11.8439 27.1753 8.90625 23.0409 8.90625 20.3906C8.90625 17.7403 9.27375 17.8124 11.4436 17.8124C17.5781 18.0468 16.4063 22.6003 16.4063 25.2506Z" fill="#553329"/>
<path d="M21.5094 16.9219C21.5094 21.1041 19.6869 25.7812 16.64 26.4844C12.1869 26.0156 8.16969 21.1041 8.16969 16.9219C7.03157 11.9531 7.26594 6.09375 15.0003 6.09375C22.7347 6.09375 21.5094 12.7392 21.5094 16.9219Z" fill="#836055"/>
<path d="M17.8125 19.2188H17.3438C17.0849 19.2188 16.875 19.4286 16.875 19.6875C16.875 19.9464 17.0849 20.1562 17.3438 20.1562H17.8125C18.0714 20.1562 18.2812 19.9464 18.2812 19.6875C18.2812 19.4286 18.0714 19.2188 17.8125 19.2188Z" fill="#68463C"/>
<path d="M17.8125 28.125H7.5C5.17005 28.125 3.28125 30.0138 3.28125 32.3438V34.6875C3.28125 37.0175 5.17005 38.9062 7.5 38.9062H17.8125C20.1425 38.9062 22.0312 37.0175 22.0312 34.6875V32.3438C22.0312 30.0138 20.1425 28.125 17.8125 28.125Z" fill="#E05A33"/>
<path d="M0.000366926 4.68658C3.74896 0.938454 6.09459 6.0933 6.09459 6.0933L5.15615 9.8433C5.15615 9.8433 4.21865 11.0152 5.15615 14.5308C6.09365 18.0464 3.98427 19.9214 3.98427 19.9214C3.98427 19.9214 2.34365 21.0938 0.937398 20.1563C-0.468852 19.2188 -0.654946 18.3178 -0.468852 16.6406C-0.234477 14.5313 0.468648 15.2334 0.468648 13.1241C0.468648 11.0147 -3.7487 8.4347 -0.000101805 4.68658H0.000366926Z" fill="#1B0B47"/>
<path d="M6.1087 6.17859L8.69058 7.29515L7.0162 11.167L4.4348 10.0514C4.4348 10.0514 3.9848 9.14062 4.68792 7.73484C5.38964 6.32859 6.10917 6.17859 6.10917 6.17859H6.1087Z" fill="#FF6C98"/>
<path fillRule="evenodd" clipRule="evenodd" d="M8.43768 19.2188L7.81752 15.083C7.26985 15.2328 6.79516 15.5762 6.48162 16.0496C6.16809 16.5229 6.03705 17.094 6.11283 17.6567C6.18862 18.2193 6.46608 18.7354 6.89367 19.1089C7.32126 19.4825 7.86991 19.6881 8.43768 19.6876V23.5782C7.69464 22.919 7.05009 22.1565 6.52377 21.3141C5.7269 20.0466 5.17002 18.5935 4.89159 17.0518C4.61331 15.5058 4.61966 13.922 4.91034 12.3783C5.20096 10.8394 5.76955 9.39241 6.57721 8.13382C7.3844 6.87569 8.41237 5.83553 9.59127 5.08413C10.7697 4.33225 12.0719 3.88647 13.4102 3.77678C13.7014 3.75295 13.9937 3.74513 14.2858 3.75335C15.5326 3.72037 16.7738 3.93135 17.9397 4.37444C19.0202 4.78694 20.0022 5.39116 20.8291 6.15288C21.6459 6.90035 22.3027 7.8056 22.7599 8.81397C23.1076 9.58493 23.3255 10.4081 23.4049 11.2501H23.4377V13.2591C23.4377 13.2591 23.2835 13.3304 22.9699 13.4307V17.4094C22.9699 17.4094 22.9699 18.0676 22.2667 18.5607C22.023 18.7318 21.6958 18.863 21.3714 18.9619C21.4634 18.2857 21.5099 17.604 21.5107 16.9215C21.5107 16.4368 21.5271 15.9188 21.5439 15.3821C21.5608 14.858 21.5782 14.3157 21.5814 13.7691C20.7133 13.928 19.5344 14.0626 18.0292 14.0626C14.3505 14.0626 12.1877 13.2591 12.1877 13.2591V12.7908C11.8689 13.2896 11.5239 13.8924 11.2502 14.5313C10.8986 15.3516 10.8986 16.1926 10.8986 16.899C10.8986 17.6058 10.8986 18.1787 10.5471 18.4623C9.84393 19.0294 8.43768 19.2188 8.43768 19.2188Z" fill="#1B0B47"/>
<path d="M15.4688 17.5781C15.4688 17.1898 15.154 16.875 14.7656 16.875C14.3773 16.875 14.0625 17.1898 14.0625 17.5781V18.0469C14.0625 18.4352 14.3773 18.75 14.7656 18.75C15.154 18.75 15.4688 18.4352 15.4688 18.0469V17.5781Z" fill="#1B0B47"/>
<path d="M20.1562 17.5781C20.1562 17.1898 19.8415 16.875 19.4531 16.875C19.0648 16.875 18.75 17.1898 18.75 17.5781V18.0469C18.75 18.4352 19.0648 18.75 19.4531 18.75C19.8415 18.75 20.1562 18.4352 20.1562 18.0469V17.5781Z" fill="#1B0B47"/>
<path d="M12.8906 18.2812H11.9531C11.5648 18.2812 11.25 18.596 11.25 18.9844C11.25 19.3727 11.5648 19.6875 11.9531 19.6875H12.8906C13.279 19.6875 13.5938 19.3727 13.5938 18.9844C13.5938 18.596 13.279 18.2812 12.8906 18.2812Z" fill="#FF859B"/>
<path d="M21.3281 18.2812H20.8594C20.471 18.2812 20.1562 18.596 20.1562 18.9844C20.1562 19.3727 20.471 19.6875 20.8594 19.6875H21.3281C21.7165 19.6875 22.0312 19.3727 22.0312 18.9844C22.0312 18.596 21.7165 18.2812 21.3281 18.2812Z" fill="#FF859B"/>
</g>
</svg>
