<svg width="60" height="60" viewBox="0 0 60 60" fill="none" xmlns="http://www.w3.org/2000/svg">
<mask id="mask0_610_9990" style="mask-type:alpha" maskUnits="userSpaceOnUse" x="0" y="0" width="60" height="60">
<path d="M60 30C60 13.4315 46.5685 0 30 0C13.4315 0 0 13.4315 0 30C0 46.5685 13.4315 60 30 60C46.5685 60 60 46.5685 60 30Z" fill="#FFC9A2"/>
</mask>
<g mask="url(#mask0_610_9990)">
<path d="M60 30C60 13.4315 46.5685 0 30 0C13.4315 0 0 13.4315 0 30C0 46.5685 13.4315 60 30 60C46.5685 60 60 46.5685 60 30Z" fill="#FFC9A2"/>
<path d="M16.875 39.375C19.4638 39.375 21.5625 37.2763 21.5625 34.6875C21.5625 32.0987 19.4638 30 16.875 30C14.2862 30 12.1875 32.0987 12.1875 34.6875C12.1875 37.2763 14.2862 39.375 16.875 39.375Z" fill="#836055"/>
<path d="M16.875 38.4375H32.8125V61.7531C32.8125 61.7531 29.3972 63.75 24.8438 63.75C20.2903 63.75 16.875 60.4903 16.875 60.4903V38.4375Z" fill="#836055"/>
<path d="M32.8125 50.5013C32.8125 55.8019 29.5313 56.25 26.6091 55.2994C23.6878 54.3506 17.8125 46.0819 17.8125 40.7813C17.8125 35.4806 18.5475 35.625 22.8872 35.625C35.1563 36.0938 32.8125 45.2006 32.8125 50.5013Z" fill="#553329"/>
<path d="M43.0188 33.8437C43.0188 42.2081 39.3738 51.5625 33.28 52.9688C24.3738 52.0312 16.3394 42.2081 16.3394 33.8437C14.0631 23.9062 14.5319 12.1875 30.0006 12.1875C45.4694 12.1875 43.0188 25.4784 43.0188 33.8437Z" fill="#836055"/>
<path d="M35.625 38.4375H34.6875C34.1697 38.4375 33.75 38.8572 33.75 39.375C33.75 39.8928 34.1697 40.3125 34.6875 40.3125H35.625C36.1428 40.3125 36.5625 39.8928 36.5625 39.375C36.5625 38.8572 36.1428 38.4375 35.625 38.4375Z" fill="#68463C"/>
<path d="M35.625 56.25H15C10.3401 56.25 6.5625 60.0276 6.5625 64.6875V69.375C6.5625 74.0349 10.3401 77.8125 15 77.8125H35.625C40.2849 77.8125 44.0625 74.0349 44.0625 69.375V64.6875C44.0625 60.0276 40.2849 56.25 35.625 56.25Z" fill="#E05A33"/>
<path d="M-0.00121927 9.37316C7.49597 1.87691 12.1872 12.1866 12.1872 12.1866L10.3103 19.6866C10.3103 19.6866 8.43534 22.0303 10.3103 29.0616C12.1853 36.0928 7.96659 39.8428 7.96659 39.8428C7.96659 39.8428 4.68534 42.1875 1.87284 40.3125C-0.939657 38.4375 -1.31184 36.6356 -0.939657 33.2813C-0.470907 29.0625 0.935343 30.4669 0.935343 26.2481C0.935343 22.0294 -7.49935 16.8694 -0.00215673 9.37316H-0.00121927Z" fill="#1B0B47"/>
<path d="M12.2155 12.3572L17.3792 14.5903L14.0305 22.3341L8.86764 20.1028C8.86764 20.1028 7.96764 18.2812 9.37389 15.4697C10.7773 12.6572 12.2164 12.3572 12.2164 12.3572H12.2155Z" fill="#FF6C98"/>
<path fillRule="evenodd" clipRule="evenodd" d="M16.8754 38.4375L15.635 30.1659C14.5397 30.4654 13.5903 31.1523 12.9632 32.099C12.3362 33.0457 12.0741 34.1878 12.2257 35.3132C12.3772 36.4386 12.9322 37.4707 13.7873 38.2177C14.6425 38.9648 15.7398 39.376 16.8754 39.375V47.1563C15.3893 45.8379 14.1002 44.3129 13.0475 42.6281C11.4538 40.0931 10.34 37.1869 9.78317 34.1034C9.22662 31.0115 9.23932 27.8439 9.82067 24.7566C10.4019 21.6788 11.5391 18.7847 13.1544 16.2675C14.7688 13.7513 16.8247 11.6709 19.1825 10.1681C21.5394 8.66438 24.1438 7.77282 26.8204 7.55345C27.4028 7.50578 27.9874 7.49013 28.5716 7.50657C31.0652 7.44062 33.5477 7.86259 35.8794 8.74876C38.0404 9.57376 40.0044 10.7822 41.6582 12.3056C43.2917 13.8006 44.6054 15.6111 45.5197 17.6278C46.2152 19.1697 46.651 20.816 46.8097 22.5H46.8754V26.5181C46.8754 26.5181 46.5669 26.6606 45.9397 26.8613V34.8188C45.9397 34.8188 45.9397 36.135 44.5335 37.1213C44.046 37.4634 43.3916 37.7259 42.7429 37.9238C42.9267 36.5712 43.0197 35.2078 43.0213 33.8428C43.0213 32.8734 43.0541 31.8375 43.0879 30.7641C43.1216 29.7159 43.1563 28.6313 43.1629 27.5381C41.4266 27.8559 39.0688 28.125 36.0585 28.125C28.701 28.125 24.3754 26.5181 24.3754 26.5181V25.5816C23.7379 26.5791 23.0479 27.7847 22.5004 29.0625C21.7972 30.7031 21.7972 32.385 21.7972 33.7978C21.7972 35.2116 21.7972 36.3572 21.0941 36.9244C19.6879 38.0588 16.8754 38.4375 16.8754 38.4375Z" fill="#1B0B47"/>
<path d="M30.9375 35.1562C30.9375 34.3796 30.3079 33.75 29.5312 33.75C28.7546 33.75 28.125 34.3796 28.125 35.1562V36.0938C28.125 36.8704 28.7546 37.5 29.5312 37.5C30.3079 37.5 30.9375 36.8704 30.9375 36.0938V35.1562Z" fill="#1B0B47"/>
<path d="M40.3125 35.1562C40.3125 34.3796 39.6829 33.75 38.9062 33.75C38.1296 33.75 37.5 34.3796 37.5 35.1562V36.0938C37.5 36.8704 38.1296 37.5 38.9062 37.5C39.6829 37.5 40.3125 36.8704 40.3125 36.0938V35.1562Z" fill="#1B0B47"/>
<path d="M25.7813 36.5625H23.9063C23.1296 36.5625 22.5 37.1921 22.5 37.9688C22.5 38.7454 23.1296 39.375 23.9063 39.375H25.7813C26.5579 39.375 27.1875 38.7454 27.1875 37.9688C27.1875 37.1921 26.5579 36.5625 25.7813 36.5625Z" fill="#FF859B"/>
<path d="M42.6562 36.5625H41.7188C40.9421 36.5625 40.3125 37.1921 40.3125 37.9688C40.3125 38.7454 40.9421 39.375 41.7188 39.375H42.6562C43.4329 39.375 44.0625 38.7454 44.0625 37.9688C44.0625 37.1921 43.4329 36.5625 42.6562 36.5625Z" fill="#FF859B"/>
</g>
</svg>
