<svg width="42" height="42" viewBox="0 0 42 42" fill="none" xmlns="http://www.w3.org/2000/svg">
<rect x="0.5" y="0.5" width="41" height="41" rx="20.5" fill="white"/>
<path d="M21 19C22.1046 19 23 19.8954 23 21C23 22.1046 22.1046 23 21 23C19.8954 23 19 22.1046 19 21C19 19.8954 19.8954 19 21 19Z" stroke="#457AFB" stroke-width="1.5"/>
<path d="M13 19C14.1046 19 15 19.8954 15 21C15 22.1046 14.1046 23 13 23C11.8954 23 11 22.1046 11 21C11 19.8954 11.8954 19 13 19Z" stroke="#457AFB" stroke-width="1.5"/>
<path d="M29 19C30.1046 19 31 19.8954 31 21C31 22.1046 30.1046 23 29 23C27.8954 23 27 22.1046 27 21C27 19.8954 27.8954 19 29 19Z" stroke="#457AFB" stroke-width="1.5"/>
<rect x="0.5" y="0.5" width="41" height="41" rx="20.5" stroke="#E7ECF4"/>
</svg>
