<svg width="20" height="22" viewBox="0 0 20 22" fill="none" xmlns="http://www.w3.org/2000/svg">
<path d="M3.06107 20.0451L3.64886 19.2361L3.06107 20.0451ZM1.95491 18.9389L2.76393 18.3511L1.95491 18.9389ZM18.0451 18.9389L17.2361 18.3511L18.0451 18.9389ZM16.9389 20.0451L17.5267 20.8541L16.9389 20.0451ZM16.9389 3.95492L17.5267 3.1459L16.9389 3.95492ZM18.0451 5.06107L17.2361 5.64886L18.0451 5.06107ZM3.06107 3.95492L3.64886 4.76393L3.06107 3.95492ZM1.95491 5.06107L2.76393 5.64886H2.76393L1.95491 5.06107ZM17.2178 15.0616L17.0614 14.0739L17.2178 15.0616ZM13.0616 19.2178L12.0739 19.0614L13.0616 19.2178ZM7 12C6.44772 12 6 12.4477 6 13C6 13.5523 6.44772 14 7 14V12ZM13 14C13.5523 14 14 13.5523 14 13C14 12.4477 13.5523 12 13 12V14ZM12 4C12 4.55228 12.4477 5 13 5C13.5523 5 14 4.55228 14 4H12ZM14 1C14 0.447715 13.5523 0 13 0C12.4477 0 12 0.447715 12 1H14ZM6 4C6 4.55228 6.44772 5 7 5C7.55228 5 8 4.55228 8 4H6ZM8 1C8 0.447715 7.55228 0 7 0C6.44772 0 6 0.447715 6 1H8ZM18.9711 15L19.9705 15.0342L18.9711 15ZM1.02893 9L0.0295148 8.96576L1.02893 9ZM18.9711 9L19.9705 8.96576L18.9711 9ZM10 20C8.10286 20 6.76033 19.9986 5.72497 19.8865C4.70833 19.7763 4.10714 19.569 3.64886 19.2361L2.47329 20.8541C3.32933 21.4761 4.32274 21.7462 5.50955 21.8748C6.67764 22.0014 8.14741 22 10 22V20ZM0 12C0 13.8526 -0.00137258 15.3224 0.125182 16.4905C0.253765 17.6773 0.523946 18.6707 1.1459 19.5267L2.76393 18.3511C2.43097 17.8929 2.22369 17.2917 2.11355 16.275C2.00137 15.2397 2 13.8971 2 12H0ZM3.64886 19.2361C3.30928 18.9894 3.01065 18.6907 2.76393 18.3511L1.1459 19.5267C1.51598 20.0361 1.96392 20.484 2.47329 20.8541L3.64886 19.2361ZM17.2361 18.3511C16.9894 18.6907 16.6907 18.9893 16.3511 19.2361L17.5267 20.8541C18.0361 20.484 18.484 20.0361 18.8541 19.5267L17.2361 18.3511ZM16.3511 4.76393C16.6907 5.01065 16.9894 5.30928 17.2361 5.64886L18.8541 4.47329C18.484 3.96392 18.0361 3.51597 17.5267 3.1459L16.3511 4.76393ZM2.47329 3.1459C1.96392 3.51598 1.51598 3.96392 1.1459 4.47329L2.76393 5.64886C3.01065 5.30928 3.30928 5.01065 3.64886 4.76393L2.47329 3.1459ZM17.0614 14.0739C14.494 14.4805 12.4805 16.494 12.0739 19.0614L14.0492 19.3743C14.3203 17.6627 15.6627 16.3203 17.3743 16.0492L17.0614 14.0739ZM7 14H13V12H7V14ZM18.9711 14C18.098 14 17.543 13.9976 17.0614 14.0739L17.3743 16.0492C17.6619 16.0037 18.0247 16 18.9711 16L18.9711 14ZM18 12C18 13.1745 17.9999 14.1422 17.9717 14.9658L19.9705 15.0342C20.0001 14.1691 20 13.1634 20 12H18ZM17.9717 14.9658C17.9082 16.8176 17.7005 17.7119 17.2361 18.3511L18.8541 19.5267C19.7042 18.3567 19.9062 16.9108 19.9705 15.0342L17.9717 14.9658ZM14 20.9711C14 20.0247 14.0037 19.6619 14.0492 19.3743L12.0739 19.0614C11.9976 19.543 12 20.098 12 20.9711L14 20.9711ZM10 22C11.1634 22 12.1691 22.0001 13.0342 21.9705L12.9658 19.9717C12.1422 19.9999 11.1745 20 10 20V22ZM13.0342 21.9705C14.9108 21.9062 16.3567 21.7042 17.5267 20.8541L16.3511 19.2361C15.7119 19.7005 14.8176 19.9082 12.9658 19.9717L13.0342 21.9705ZM2 12C2 10.8255 2.00013 9.85782 2.02834 9.03424L0.0295148 8.96576C-0.000125289 9.83088 0 10.8366 0 12H2ZM2.02834 9.03424C2.09179 7.1824 2.29953 6.28806 2.76393 5.64886L1.1459 4.47329C0.295834 5.6433 0.0938073 7.08923 0.0295148 8.96576L2.02834 9.03424ZM1.02893 10H18.9711V8H1.02893V10ZM20 12C20 10.8366 20.0001 9.83088 19.9705 8.96576L17.9717 9.03424C17.9999 9.85782 18 10.8255 18 12H20ZM19.9705 8.96576C19.9062 7.08923 19.7042 5.6433 18.8541 4.47329L17.2361 5.64886C17.7005 6.28806 17.9082 7.1824 17.9717 9.03424L19.9705 8.96576ZM14 4V3.02893H12V4H14ZM14 3.02893V1H12V3.02893H14ZM10 4C11.1745 4 12.1422 4.00013 12.9658 4.02834L13.0342 2.02951C12.1691 1.99987 11.1634 2 10 2V4ZM12.9658 4.02834C14.8176 4.09179 15.7119 4.29953 16.3511 4.76393L17.5267 3.1459C16.3567 2.29583 14.9108 2.09381 13.0342 2.02951L12.9658 4.02834ZM8 4V3.02893H6V4H8ZM8 3.02893V1H6V3.02893H8ZM10 2C8.83661 2 7.83088 1.99987 6.96576 2.02951L7.03424 4.02834C7.85782 4.00013 8.82554 4 10 4V2ZM6.96576 2.02951C5.08923 2.09381 3.6433 2.29583 2.47329 3.1459L3.64886 4.76393C4.28806 4.29953 5.1824 4.09179 7.03424 4.02834L6.96576 2.02951Z" fill="black"/>
</svg>
