<svg width="22" height="6" viewBox="0 0 22 6" fill="none" xmlns="http://www.w3.org/2000/svg">
<path d="M11 1C12.1046 1 13 1.89543 13 3C13 4.10457 12.1046 5 11 5C9.89543 5 9 4.10457 9 3C9 1.89543 9.89543 1 11 1Z" stroke="#457AFB" stroke-width="1.5"/>
<path d="M3 1C4.10457 1 5 1.89543 5 3C5 4.10457 4.10457 5 3 5C1.89543 5 1 4.10457 1 3C1 1.89543 1.89543 1 3 1Z" stroke="#457AFB" stroke-width="1.5"/>
<path d="M19 1C20.1046 1 21 1.89543 21 3C21 4.10457 20.1046 5 19 5C17.8954 5 17 4.10457 17 3C17 1.89543 17.8954 1 19 1Z" stroke="#457AFB" stroke-width="1.5"/>
</svg>
