<svg width="22" height="22" viewBox="0 0 22 22" fill="none" xmlns="http://www.w3.org/2000/svg">
<path fillRule="evenodd" clipRule="evenodd" d="M11.75 4C11.75 3.58579 11.4142 3.25 11 3.25C10.5858 3.25 10.25 3.58579 10.25 4V4.30809C9.92325 4.39007 9.60262 4.51814 9.29734 4.6944C6.57548 6.26586 6.92142 10.2989 9.87113 11.3839L10.25 11.5232V16.2194C9.71513 16.0686 9.23725 15.717 8.93805 15.1988L8.56249 14.5483C8.35538 14.1895 7.89669 14.0666 7.53797 14.2737C7.17925 14.4808 7.05634 14.9395 7.26345 15.2983L7.63901 15.9488C8.21747 16.9507 9.19267 17.5796 10.25 17.7535V18C10.25 18.4142 10.5858 18.75 11 18.75C11.4142 18.75 11.75 18.4142 11.75 18V17.692C12.0768 17.61 12.3975 17.4819 12.7029 17.3056C15.4247 15.7341 15.0788 11.7011 12.1291 10.6161L11.75 10.4767L11.75 5.78051C12.285 5.93135 12.7629 6.28296 13.0622 6.80125L13.4377 7.45175C13.6448 7.81047 14.1035 7.93338 14.4623 7.72627C14.821 7.51916 14.9439 7.06047 14.7368 6.70175L14.3612 6.05125C13.7827 5.04927 12.8074 4.42031 11.75 4.24649V4ZM10.0473 5.99343C10.1139 5.95501 10.1815 5.92046 10.25 5.88972L10.25 9.91994C8.62302 9.20144 8.47064 6.90374 10.0473 5.99343ZM11.9529 16.0066C11.8863 16.045 11.8185 16.0796 11.75 16.1104V12.08C13.3772 12.7984 13.5297 15.0962 11.9529 16.0066Z" fill="#2D264B"/>
<path fillRule="evenodd" clipRule="evenodd" d="M11 0.25C5.06294 0.25 0.25 5.06294 0.25 11C0.25 16.9371 5.06294 21.75 11 21.75C16.9371 21.75 21.75 16.9371 21.75 11C21.75 5.06294 16.9371 0.25 11 0.25ZM1.75 11C1.75 5.89137 5.89137 1.75 11 1.75C16.1086 1.75 20.25 5.89137 20.25 11C20.25 16.1086 16.1086 20.25 11 20.25C5.89137 20.25 1.75 16.1086 1.75 11Z" fill="#2D264B"/>
</svg>
