<svg width="20" height="20" viewBox="0 0 20 20" fill="none" xmlns="http://www.w3.org/2000/svg">
<path d="M0 0H10C15.5228 0 20 4.47715 20 10V20H10C4.47715 20 0 15.5228 0 10V0Z" fill="#ACACAC"/>
<path d="M15.1132 10.2918L12.3788 13.1003C12.3601 13.1195 12.3406 13.1398 12.3201 13.1611C12.1084 13.3808 11.7985 13.7024 11.3936 13.9023C10.9886 14.1022 10.5506 14.1498 10.2514 14.1823C10.2224 14.1855 10.1947 14.1885 10.1685 14.1915L10.0868 14.2008C9.50482 14.2674 8.92564 14.3337 8.44633 14.3178C7.90638 14.2998 7.21713 14.1743 6.65577 13.5977C6.09442 13.0211 5.97216 12.3132 5.95472 11.7586C5.93924 11.2662 6.00374 10.6714 6.06856 10.0736L6.07765 9.98971C6.08056 9.96279 6.08349 9.93437 6.08656 9.90461C6.11823 9.59724 6.1646 9.14729 6.35923 8.73136C6.55386 8.31543 6.86694 7.99718 7.08083 7.77976C7.10153 7.75872 7.12134 7.73859 7.13998 7.71943L10.1907 4.58596C9.99689 4.58536 9.79427 4.58536 9.58239 4.58537H9.53081C8.48415 4.58536 7.66371 4.58536 7.0128 4.65779C6.34855 4.73171 5.81034 4.88526 5.35081 5.22819C5.07262 5.43579 4.82797 5.68708 4.62585 5.97282C4.29198 6.44482 4.14248 6.99762 4.07051 7.67989C3.99999 8.34845 4 9.19115 4 10.2662V10.3192C4 11.3942 3.99999 12.2369 4.07051 12.9055C4.14248 13.5877 4.29198 14.1406 4.62585 14.6125C4.82797 14.8983 5.07262 15.1496 5.35081 15.3572C5.81034 15.7001 6.34855 15.8537 7.0128 15.9276C7.6637 16 8.48412 16 9.53075 16H9.5824C10.629 16 11.4495 16 12.1004 15.9276C12.7646 15.8537 13.3028 15.7001 13.7624 15.3572C14.0406 15.1496 14.2852 14.8983 14.4873 14.6125C14.8212 14.1406 14.9707 13.5877 15.0427 12.9055C15.1132 12.2369 15.1132 11.3942 15.1132 10.3192V10.2918Z" fill="white"/>
<path d="M10.6095 5.6045L7.80398 8.48609C7.56411 8.73206 7.37445 8.92654 7.25814 9.17512C7.14182 9.42369 7.11244 9.6973 7.07529 10.0433L7.06521 10.1369C6.99571 10.7791 6.93843 11.3085 6.95154 11.7255C6.96525 12.1616 7.05701 12.5611 7.361 12.8733C7.66498 13.1856 8.05391 13.2798 8.47852 13.2939C8.88451 13.3074 9.39991 13.2485 10.0252 13.1772L10.1163 13.1668C10.4532 13.1286 10.7195 13.0985 10.9616 12.979C11.2036 12.8595 11.3929 12.6647 11.6324 12.4183L14.4391 9.53549L14.1337 9.23479L10.9015 5.91489L10.6095 5.6045Z" fill="white"/>
<path d="M15.043 8.9138C15.2785 8.66825 15.4776 8.45045 15.6274 8.24872C15.8464 7.95393 16 7.64247 16 7.26542C16 6.88837 15.8464 6.57691 15.6274 6.28212C15.42 6.00282 15.118 5.69272 14.7559 5.32083L14.714 5.27779C14.352 4.90589 14.0501 4.59576 13.7782 4.38267C13.4911 4.15776 13.1879 4 12.8208 4C12.4537 4 12.1505 4.15776 11.8635 4.38267C11.6667 4.53685 11.4543 4.74182 11.2147 4.98423L11.5137 5.30197L14.7318 8.60736L15.043 8.9138Z" fill="white"/>
</svg>
