<svg width="24" height="18" viewBox="0 0 24 18" fill="none" xmlns="http://www.w3.org/2000/svg">
<path d="M14 4.75C14 5.85457 13.1046 6.75 12 6.75V8.75C14.2091 8.75 16 6.95914 16 4.75H14ZM12 6.75C10.8954 6.75 10 5.85457 10 4.75H8C8 6.95914 9.79086 8.75 12 8.75V6.75ZM10 4.75C10 3.64543 10.8954 2.75 12 2.75V0.75C9.79086 0.75 8 2.54086 8 4.75H10ZM12 2.75C13.1046 2.75 14 3.64543 14 4.75H16C16 2.54086 14.2091 0.75 12 0.75V2.75ZM9 11.75H15V9.75H9V11.75ZM15 15.75H9V17.75H15V15.75ZM9 15.75C7.89543 15.75 7 14.8546 7 13.75H5C5 15.9591 6.79086 17.75 9 17.75V15.75ZM17 13.75C17 14.8546 16.1046 15.75 15 15.75V17.75C17.2091 17.75 19 15.9591 19 13.75H17ZM15 11.75C16.1046 11.75 17 12.6454 17 13.75H19C19 11.5409 17.2091 9.75 15 9.75V11.75ZM9 9.75C6.79086 9.75 5 11.5409 5 13.75H7C7 12.6454 7.89543 11.75 9 11.75V9.75Z" fill="black"/>
<path d="M17 2C17 2 20 2 20 5C20 8 17 8 17 8" stroke="#2D264B" stroke-width="2"/>
<path d="M7 8C7 8 4 8 4 5C4 2 7 2 7 2" stroke="#2D264B" stroke-width="2"/>
<path d="M20 10C20 10 23 10 23 13C23 16 20 16 20 16" stroke="#2D264B" stroke-width="2"/>
<path d="M4 16C4 16 1 16 1 13C1 10 4 10 4 10" stroke="#2D264B" stroke-width="2"/>
</svg>
