<svg width="24" height="24" viewBox="0 0 24 24" fill="none" xmlns="http://www.w3.org/2000/svg">
<path d="M14.25 7.75C14.25 8.99264 13.2426 10 12 10V11.5C14.0711 11.5 15.75 9.82107 15.75 7.75H14.25ZM12 10C10.7574 10 9.75 8.99264 9.75 7.75H8.25C8.25 9.82107 9.92893 11.5 12 11.5V10ZM9.75 7.75C9.75 6.50736 10.7574 5.5 12 5.5V4C9.92893 4 8.25 5.67893 8.25 7.75H9.75ZM12 5.5C13.2426 5.5 14.25 6.50736 14.25 7.75H15.75C15.75 5.67893 14.0711 4 12 4V5.5ZM9 14.5H15V13H9V14.5ZM15 19H9V20.5H15V19ZM9 19C7.75736 19 6.75 17.9926 6.75 16.75H5.25C5.25 18.8211 6.92893 20.5 9 20.5V19ZM17.25 16.75C17.25 17.9926 16.2426 19 15 19V20.5C17.0711 20.5 18.75 18.8211 18.75 16.75H17.25ZM15 14.5C16.2426 14.5 17.25 15.5074 17.25 16.75H18.75C18.75 14.6789 17.0711 13 15 13V14.5ZM9 13C6.92893 13 5.25 14.6789 5.25 16.75H6.75C6.75 15.5074 7.75736 14.5 9 14.5V13Z" fill="black"/>
<path d="M17 5C17 5 20 5 20 8C20 11 17 11 17 11" stroke="#2D264B" stroke-width="1.5"/>
<path d="M7 11C7 11 4 11 4 8C4 5 7 5 7 5" stroke="#2D264B" stroke-width="1.5"/>
<path d="M20 13C20 13 23 13 23 16C23 19 20 19 20 19" stroke="#2D264B" stroke-width="1.5"/>
<path d="M4 19C4 19 1 19 1 16C1 13 4 13 4 13" stroke="#2D264B" stroke-width="1.5"/>
</svg>
