<svg width="6" height="12" viewBox="0 0 6 12" fill="none" xmlns="http://www.w3.org/2000/svg">
<path d="M1.52796 0.217309C1.23376 -0.0742744 0.758893 -0.0721557 0.467309 0.222041C0.175726 0.516238 0.177844 0.991107 0.472041 1.28269L2.23501 3.03C2.9505 3.73914 3.44131 4.22718 3.77341 4.64071C4.096 5.0424 4.20668 5.30042 4.23613 5.5315C4.25462 5.67659 4.25462 5.82341 4.23613 5.9685C4.20668 6.19958 4.096 6.4576 3.77341 6.85929C3.44131 7.27282 2.9505 7.76086 2.23501 8.47L0.472041 10.2173C0.177844 10.5089 0.175726 10.9838 0.467309 11.278C0.758893 11.5722 1.23376 11.5743 1.52796 11.2827L3.32269 9.5039C3.99866 8.83396 4.55114 8.28641 4.94294 7.79854C5.35037 7.29122 5.64531 6.77628 5.72409 6.15816C5.75864 5.88714 5.75864 5.61286 5.72409 5.34184C5.64531 4.72372 5.35037 4.20878 4.94294 3.70146C4.55114 3.21359 3.99866 2.66604 3.32269 1.99609L1.52796 0.217309Z" fill="#457AFB"/>
</svg>
