<svg width="6" height="12" viewBox="0 0 6 12" fill="none" xmlns="http://www.w3.org/2000/svg">
<path d="M5.52796 1.28269C5.82216 0.991107 5.82427 0.516238 5.53269 0.222041C5.24111 -0.0721558 4.76624 -0.0742744 4.47204 0.217309L2.67731 1.9961C2.00134 2.66604 1.44886 3.21359 1.05706 3.70146C0.649628 4.20878 0.354695 4.72372 0.275909 5.34184C0.241364 5.61286 0.241364 5.88714 0.275909 6.15816C0.354695 6.77628 0.649628 7.29122 1.05706 7.79854C1.44886 8.28641 2.00133 8.83395 2.6773 9.50389L4.47204 11.2827C4.76624 11.5743 5.24111 11.5722 5.53269 11.278C5.82427 10.9838 5.82216 10.5089 5.52796 10.2173L3.76499 8.47C3.0495 7.76086 2.55869 7.27282 2.22659 6.85929C1.904 6.4576 1.79332 6.19958 1.76387 5.9685C1.74538 5.82341 1.74538 5.67659 1.76387 5.5315C1.79332 5.30042 1.904 5.0424 2.22659 4.64071C2.55869 4.22718 3.0495 3.73914 3.76499 3.03L5.52796 1.28269Z" fill="#B4C0CF"/>
</svg>
