<svg width="40" height="40" viewBox="0 0 40 40" fill="none" xmlns="http://www.w3.org/2000/svg">
<rect width="40" height="40" rx="20" fill="#457AFB"/>
<path d="M24.2703 19.7444L24.7465 20.3238L24.2703 19.7444ZM15.3786 19.7557L15.8774 19.1956L15.3786 19.7557ZM21.3675 27.3421L20.9347 26.7296L21.3675 27.3421ZM19.4262 28.7135L19.859 29.3261L19.4262 28.7135ZM12.126 16.8595L11.6273 17.4197L12.126 16.8595ZM27.7906 16.8509L27.3144 16.2715L27.7906 16.8509ZM24 15.75C24.4142 15.75 24.75 15.4142 24.75 15C24.75 14.5858 24.4142 14.25 24 14.25V15.75ZM16 14.25C15.5858 14.25 15.25 14.5858 15.25 15C15.25 15.4142 15.5858 15.75 16 15.75V14.25ZM14.4725 11.75H25.5842V10.25H14.4725V11.75ZM20.9347 26.7296L18.9935 28.101L19.859 29.3261L21.8002 27.9547L20.9347 26.7296ZM17.75 27.5134V23.336H16.25V27.5134H17.75ZM15.8774 19.1956L12.6248 16.2994L11.6273 17.4197L14.8799 20.3159L15.8774 19.1956ZM27.3144 16.2715L23.7941 19.165L24.7465 20.3238L28.2668 17.4303L27.3144 16.2715ZM21.75 23.4521V25.1817H23.25V23.4521H21.75ZM23.7941 19.165C22.5015 20.2274 21.75 21.7946 21.75 23.4521H23.25C23.25 22.2522 23.7936 21.107 24.7465 20.3238L23.7941 19.165ZM17.75 23.336C17.75 21.7567 17.0674 20.2552 15.8774 19.1956L14.8799 20.3159C15.7561 21.0961 16.25 22.1925 16.25 23.336H17.75ZM21.8002 27.9547C22.7061 27.3147 23.25 26.2855 23.25 25.1817H21.75C21.75 25.7872 21.4519 26.3642 20.9347 26.7296L21.8002 27.9547ZM18.9935 28.101C18.4475 28.4867 17.75 28.0779 17.75 27.5134H16.25C16.25 29.3745 18.3855 30.367 19.859 29.3261L18.9935 28.101ZM10.25 14.3731C10.25 15.5365 10.7529 16.6411 11.6273 17.4197L12.6248 16.2994C12.0642 15.8002 11.75 15.1006 11.75 14.3731H10.25ZM28.25 14.318C28.25 15.0652 27.9116 15.7807 27.3144 16.2715L28.2668 17.4303C29.2037 16.6603 29.75 15.5228 29.75 14.318H28.25ZM25.5842 11.75C27.0772 11.75 28.25 12.9201 28.25 14.318H29.75C29.75 12.0509 27.8642 10.25 25.5842 10.25V11.75ZM14.4725 10.25C12.1611 10.25 10.25 12.0756 10.25 14.3731H11.75C11.75 12.9448 12.9482 11.75 14.4725 11.75V10.25ZM24 14.25L16 14.25V15.75L24 15.75V14.25Z" fill="white"/>
</svg>
