<svg width="46" height="44" viewBox="0 0 46 44" fill="none" xmlns="http://www.w3.org/2000/svg">
<path d="M13 11C13 5.47715 17.4771 1 23 1C28.5228 1 33 5.47715 33 11V11.0234M13 11C14.2556 10.9762 15.6654 11 17.3207 11H28.6793C30.324 11 31.7501 11 33 11.0234M13 11C9.56225 11.0653 7.43644 11.3332 5.78393 12.2455C3.86172 13.3067 2.3439 14.9701 1.46207 16.9768M1.46207 16.9768L8.61516 24.1299C15.2818 30.7966 18.6152 34.1299 22.7573 34.1299C26.8994 34.1299 30.2328 30.7966 36.8994 24.1299L44.1648 16.8645C44.2361 16.7933 44.3147 16.7298 44.3993 16.6752V16.6752M1.46207 16.9768C1.43491 17.0386 1.40835 17.1007 1.38241 17.1632C0.393641 19.543 0.735266 22.6176 1.41852 28.7669C1.97775 33.8 2.25737 36.3166 3.41836 38.2158C4.44107 39.8887 5.93306 41.2241 7.70873 42.0558C9.72449 43 12.2565 43 17.3207 43H28.6793C33.7434 43 36.2755 43 38.2912 42.0558C40.0669 41.2241 41.5589 39.8887 42.5816 38.2158C43.7426 36.3166 44.0222 33.8 44.5814 28.7669C45.2647 22.6176 45.6063 19.543 44.6175 17.1632C44.549 16.9983 44.4762 16.8356 44.3993 16.6752M33 11.0234C36.4519 11.088 38.5597 11.3311 40.216 12.2455C42.0411 13.2531 43.5016 14.8035 44.3993 16.6752" stroke="black" stroke-width="1.5"/>
</svg>
