<svg width="36" height="36" viewBox="0 0 36 36" fill="none" xmlns="http://www.w3.org/2000/svg">
<rect width="36" height="36" rx="12" fill="#FF566B" fill-opacity="0.12"/>
<path d="M18.7499 13C18.7499 12.5858 18.4141 12.25 17.9999 12.25C17.5857 12.25 17.2499 12.5858 17.2499 13V19C17.2499 19.4142 17.5857 19.75 17.9999 19.75C18.4141 19.75 18.7499 19.4142 18.7499 19V13Z" fill="#FF566B"/>
<path fillRule="evenodd" clipRule="evenodd" d="M20.3387 7.74711C18.8499 7.0843 17.1499 7.0843 15.6612 7.74711C14.7304 8.16154 13.9787 8.95575 13.2025 10.0544C12.4287 11.1496 11.5621 12.6505 10.4427 14.5896L10.4017 14.6604C9.28224 16.5994 8.41568 18.1004 7.8541 19.3181C7.29073 20.5396 6.97876 21.5877 7.08526 22.601C7.2556 24.2217 8.10562 25.694 9.424 26.6518C10.2483 27.2507 11.312 27.5046 12.6515 27.6275C13.9869 27.75 15.72 27.75 17.9589 27.75H18.0408C20.2798 27.75 22.0129 27.75 23.3483 27.6275C24.6879 27.5046 25.7515 27.2507 26.5758 26.6518C27.8942 25.694 28.7442 24.2217 28.9146 22.601C29.0211 21.5877 28.7091 20.5396 28.1457 19.3181C27.5841 18.1004 26.7176 16.5994 25.5981 14.6604L25.5571 14.5895C24.4377 12.6505 23.5711 11.1496 22.7974 10.0544C22.0211 8.95575 21.2695 8.16154 20.3387 7.74711ZM16.2713 9.11743C17.3716 8.62752 18.6282 8.62752 19.7285 9.11743C20.2819 9.36379 20.8407 9.88446 21.5723 10.92C22.3016 11.9523 23.1344 13.3932 24.2786 15.375C25.4228 17.3568 26.2543 18.7985 26.7836 19.9463C27.3146 21.0976 27.4861 21.8419 27.4228 22.4442C27.2969 23.6421 26.6686 24.7303 25.6942 25.4383C25.2041 25.7943 24.4738 26.0179 23.2113 26.1338C21.9526 26.2492 20.2883 26.25 17.9999 26.25C15.7115 26.25 14.0473 26.2492 12.7886 26.1338C11.526 26.0179 10.7957 25.7943 10.3057 25.4383C9.33123 24.7303 8.70295 23.6421 8.57705 22.4442C8.51373 21.8419 8.68524 21.0976 9.21622 19.9463C9.74556 18.7985 10.577 17.3568 11.7212 15.375C12.8654 13.3932 13.6982 11.9523 14.4276 10.92C15.1592 9.88446 15.718 9.36379 16.2713 9.11743Z" fill="#FF566B"/>
<path d="M19 22C19 22.5523 18.5522 23 18 23C17.4477 23 17 22.5523 17 22C17 21.4477 17.4477 21 18 21C18.5522 21 19 21.4477 19 22Z" fill="#FF566B"/>
</svg>
