<svg width="22" height="19" viewBox="0 0 22 19" fill="none" xmlns="http://www.w3.org/2000/svg">
<path d="M4.00006 8.07823V10.6266C4.00006 12.4879 4.00006 13.4185 4.24477 14.1717C4.73936 15.6939 5.93278 16.8873 7.45497 17.3819C8.20813 17.6266 9.13877 17.6266 11.0001 17.6266C12.8613 17.6266 13.792 17.6266 14.5451 17.3819C16.0673 16.8873 17.2607 15.6939 17.7553 14.1717C18.0001 13.4185 18.0001 12.4879 18.0001 10.6266V8.08152M18.0001 8.08152C17.0428 8.46949 15.8602 8.89091 14.4529 9.39352L12.3455 10.1462C11.6796 10.384 11.3466 10.5029 11.0002 10.5029C10.6537 10.5029 10.3208 10.384 9.6548 10.1462L7.5474 9.39352C3.14674 7.82184 0.946411 7.03599 0.946411 5.62656C0.946411 4.21713 3.14674 3.43129 7.5474 1.8596L9.6548 1.10695C10.3208 0.869105 10.6537 0.750183 11.0002 0.750183C11.3466 0.750183 11.6796 0.869105 12.3455 1.10695L14.4529 1.8596C18.8536 3.43129 21.0539 4.21713 21.0539 5.62656C21.0539 6.58527 20.0362 7.25628 18.0001 8.08152Z" stroke="#2D264B" stroke-width="1.5"/>
</svg>
