<svg width="36" height="36" viewBox="0 0 36 36" fill="none" xmlns="http://www.w3.org/2000/svg">
<rect width="36" height="36" rx="12" fill="#FF566B"/>
<path d="M18.7498 13C18.7498 12.5858 18.414 12.25 17.9998 12.25C17.5856 12.25 17.2498 12.5858 17.2498 13V19C17.2498 19.4142 17.5856 19.75 17.9998 19.75C18.414 19.75 18.7498 19.4142 18.7498 19V13Z" fill="white"/>
<path fillRule="evenodd" clipRule="evenodd" d="M20.3385 7.74711C18.8498 7.0843 17.1498 7.0843 15.6611 7.74711C14.7302 8.16154 13.9786 8.95575 13.2023 10.0544C12.4286 11.1496 11.562 12.6505 10.4425 14.5896L10.4016 14.6604C9.28212 16.5994 8.41556 18.1004 7.85397 19.3181C7.29061 20.5396 6.97864 21.5877 7.08514 22.601C7.25548 24.2217 8.1055 25.694 9.42388 26.6518C10.2482 27.2507 11.3118 27.5046 12.6514 27.6275C13.9868 27.75 15.7199 27.75 17.9588 27.75H18.0407C20.2797 27.75 22.0128 27.75 23.3482 27.6275C24.6878 27.5046 25.7514 27.2507 26.5757 26.6518C27.8941 25.694 28.7441 24.2217 28.9144 22.601C29.021 21.5877 28.709 20.5396 28.1456 19.3181C27.584 18.1004 26.7175 16.5994 25.5979 14.6604L25.557 14.5895C24.4375 12.6505 23.571 11.1496 22.7972 10.0544C22.021 8.95575 21.2694 8.16154 20.3385 7.74711ZM16.2712 9.11743C17.3715 8.62752 18.6281 8.62752 19.7284 9.11743C20.2817 9.36379 20.8406 9.88446 21.5722 10.92C22.3015 11.9523 23.1343 13.3932 24.2785 15.375C25.4227 17.3568 26.2542 18.7985 26.7835 19.9463C27.3145 21.0976 27.486 21.8419 27.4227 22.4442C27.2968 23.6421 26.6685 24.7303 25.694 25.4383C25.204 25.7943 24.4737 26.0179 23.2111 26.1338C21.9524 26.2492 20.2882 26.25 17.9998 26.25C15.7114 26.25 14.0471 26.2492 12.7885 26.1338C11.5259 26.0179 10.7956 25.7943 10.3056 25.4383C9.3311 24.7303 8.70283 23.6421 8.57692 22.4442C8.51361 21.8419 8.68512 21.0976 9.2161 19.9463C9.74544 18.7985 10.5769 17.3568 11.7211 15.375C12.8653 13.3932 13.6981 11.9523 14.4274 10.92C15.159 9.88446 15.7178 9.36379 16.2712 9.11743Z" fill="white"/>
<path d="M18.9998 22C18.9998 22.5523 18.5521 23 17.9998 23C17.4476 23 16.9998 22.5523 16.9998 22C16.9998 21.4477 17.4476 21 17.9998 21C18.5521 21 18.9998 21.4477 18.9998 22Z" fill="white"/>
</svg>
