<svg width="24" height="24" viewBox="0 0 24 24" fill="none" xmlns="http://www.w3.org/2000/svg">
<path d="M0 4C0 1.79086 1.79086 0 4 0H20C22.2091 0 24 1.79086 24 4V20C24 22.2091 22.2091 24 20 24H4C1.79086 24 0 22.2091 0 20V4Z" fill="white" fill-opacity="0.9"/>
<path d="M12.7682 18.0781C12.3684 18.5579 11.6316 18.5579 11.2318 18.0781L8.36682 14.6402C7.82405 13.9889 8.2872 13 9.13504 13L14.865 13C15.7128 13 16.176 13.9889 15.6332 14.6402L12.7682 18.0781Z" fill="#AEB4BD"/>
<path d="M11.2318 5.92186C11.6316 5.44211 12.3684 5.44211 12.7682 5.92187L15.6332 9.35982C16.176 10.0111 15.7128 11 14.865 11H9.13504C8.2872 11 7.82405 10.0111 8.36682 9.35982L11.2318 5.92186Z" fill="#457AFB"/>
</svg>
