<svg width="36" height="36" viewBox="0 0 36 36" fill="none" xmlns="http://www.w3.org/2000/svg">
<path d="M14 28.4063C15.0032 28.5279 16.2763 28.5279 18 28.5279C19.7237 28.5279 20.9968 28.5279 22 28.4063M14 28.4063C13.0847 28.2955 12.3941 28.0834 11.7906 27.678C11.6892 27.6098 11.5902 27.5379 11.4941 27.4625C10.2949 26.5222 9.78559 24.9547 8.76696 21.8197C7.74832 18.6846 7.23901 17.1171 7.65645 15.6516C7.68994 15.534 7.72773 15.4177 7.76974 15.3029C8.29344 13.8719 9.62685 12.9031 12.2937 10.9656C14.9605 9.028 16.2939 8.05923 17.8167 8.00336C17.9389 7.99888 18.0611 7.99888 18.1833 8.00336C19.7061 8.05923 21.0395 9.028 23.7063 10.9656C26.3732 12.9031 27.7066 13.8719 28.2303 15.3029C28.2723 15.4177 28.3101 15.534 28.3436 15.6516C28.761 17.1171 28.2517 18.6846 27.2331 21.8197C26.2144 24.9547 25.7051 26.5222 24.506 27.4625C24.4098 27.5379 24.3108 27.6098 24.2094 27.678C23.606 28.0834 22.9153 28.2955 22 28.4063M14 28.4063V28.3197V24.8197C14 22.6105 15.7909 20.8197 18 20.8197C20.2091 20.8197 22 22.6105 22 24.8197V28.3197V28.4063" stroke="#6D737B" stroke-width="1.5"/>
</svg>
