<svg width="21" height="18" viewBox="0 0 21 18" fill="none" xmlns="http://www.w3.org/2000/svg">
<path d="M18.0786 3.79014C18.4687 4.66325 18.634 5.8534 18.9182 7.89945C19.3544 11.0399 19.5725 12.6101 19.0929 13.8297C18.672 14.9003 17.8947 15.793 16.8921 16.3573C15.7502 17 14.1649 17 10.9943 17H9.37007C6.19947 17 4.61417 17 3.4722 16.3573C2.46966 15.793 1.69237 14.9003 1.2714 13.8297C0.791867 12.6101 1.00995 11.0399 1.44613 7.89945C1.71221 5.98369 1.87407 4.81829 2.21389 3.96093M18.0786 3.79014C18.0024 3.61965 17.9176 3.46125 17.8217 3.31092C17.3044 2.50008 16.5643 1.85563 15.69 1.45483C14.6978 1 13.4633 1 10.9943 1H9.37007C6.90101 1 5.66649 1 4.67432 1.45483C3.80003 1.85563 3.05988 2.50008 2.54262 3.31092C2.41545 3.51027 2.30786 3.72382 2.21389 3.96093M18.0786 3.79014L17.99 3.87868L17.1319 4.7368C13.7986 8.07013 12.1319 9.7368 10.0608 9.7368C7.98976 9.7368 6.32309 8.07013 2.98976 4.7368L2.21389 3.96093" stroke="#2D264B" stroke-width="1.5"/>
</svg>
