<svg width="84" height="84" viewBox="0 0 84 84" fill="none" xmlns="http://www.w3.org/2000/svg">
<g filter="url(#filter0_d_111_152)">
<circle cx="42" cy="38" r="32" fill="#457AFB"/>
</g>
<path d="M30.7723 33.2376L30.9287 34.2253H30.9287L30.7723 33.2376ZM37.2376 26.7723L38.2253 26.9287L37.2376 26.7723ZM52.7939 50.5146L52.2061 49.7056L52.7939 50.5146ZM54.5146 48.7939L53.7056 48.2061L54.5146 48.7939ZM29.4854 48.7939L30.2944 48.2061L29.4854 48.7939ZM31.2061 50.5146L31.7939 49.7056L31.2061 50.5146ZM31.2061 25.4854L30.6183 24.6764L31.2061 25.4854ZM29.4854 27.2061L28.6764 26.6183L29.4854 27.2061ZM52.7939 25.4854L52.2061 26.2944L52.7939 25.4854ZM54.5146 27.2061L53.7056 27.7939L54.5146 27.2061ZM37.3333 24.045L37.2991 23.0456L37.3333 24.045ZM28.045 33.3333L27.0456 33.2991L28.045 33.3333ZM38.8889 38.5556C38.3366 38.5556 37.8889 39.0033 37.8889 39.5556C37.8889 40.1078 38.3366 40.5556 38.8889 40.5556V38.5556ZM48.2222 40.5556C48.7745 40.5556 49.2222 40.1078 49.2222 39.5556C49.2222 39.0033 48.7745 38.5556 48.2222 38.5556V40.5556ZM42.5556 44.2222C42.5556 44.7745 43.0033 45.2222 43.5556 45.2222C44.1078 45.2222 44.5556 44.7745 44.5556 44.2222H42.5556ZM44.5556 34.8889C44.5556 34.3366 44.1078 33.8889 43.5556 33.8889C43.0033 33.8889 42.5556 34.3366 42.5556 34.8889H44.5556ZM30.9287 34.2253C34.6846 33.6304 37.6304 30.6846 38.2253 26.9287L36.2499 26.6158C35.7905 29.516 33.516 31.7905 30.6158 32.2499L30.9287 34.2253ZM42 53C44.8942 53 47.1451 53.0014 48.9253 52.8085C50.7242 52.6136 52.1605 52.2108 53.3817 51.3236L52.2061 49.7056C51.3827 50.3038 50.3386 50.6437 48.7099 50.8201C47.0625 50.9986 44.9387 51 42 51V53ZM55 38C55 40.9387 54.9986 43.0625 54.8201 44.7099C54.6437 46.3386 54.3038 47.3827 53.7056 48.2061L55.3236 49.3817C56.2108 48.1605 56.6136 46.7242 56.8085 44.9253C57.0014 43.1451 57 40.8942 57 38H55ZM53.3817 51.3236C54.1269 50.7822 54.7822 50.1269 55.3236 49.3817L53.7056 48.2061C53.2875 48.7815 52.7815 49.2875 52.2061 49.7056L53.3817 51.3236ZM27 38C27 40.8942 26.9986 43.1451 27.1915 44.9253C27.3864 46.7242 27.7892 48.1605 28.6764 49.3817L30.2944 48.2061C29.6962 47.3827 29.3563 46.3386 29.1799 44.7099C29.0014 43.0625 29 40.9387 29 38H27ZM42 51C39.0613 51 36.9375 50.9986 35.2901 50.8201C33.6614 50.6437 32.6173 50.3038 31.7939 49.7056L30.6183 51.3236C31.8395 52.2108 33.2758 52.6136 35.0747 52.8085C36.8549 53.0014 39.1058 53 42 53V51ZM28.6764 49.3817C29.2178 50.1269 29.8731 50.7822 30.6183 51.3236L31.7939 49.7056C31.2185 49.2875 30.7125 48.7815 30.2944 48.2061L28.6764 49.3817ZM30.6183 24.6764C29.8731 25.2178 29.2178 25.8731 28.6764 26.6183L30.2944 27.7939C30.7125 27.2185 31.2185 26.7125 31.7939 26.2944L30.6183 24.6764ZM42 25C44.9387 25 47.0625 25.0014 48.7099 25.1799C50.3386 25.3563 51.3827 25.6962 52.2061 26.2944L53.3817 24.6764C52.1605 23.7892 50.7242 23.3864 48.9253 23.1915C47.1451 22.9986 44.8942 23 42 23V25ZM57 38C57 35.1058 57.0014 32.8549 56.8085 31.0747C56.6136 29.2758 56.2108 27.8395 55.3236 26.6183L53.7056 27.7939C54.3038 28.6173 54.6437 29.6614 54.8201 31.2901C54.9986 32.9375 55 35.0613 55 38H57ZM52.2061 26.2944C52.7815 26.7125 53.2875 27.2185 53.7056 27.7939L55.3236 26.6183C54.7822 25.8731 54.1269 25.2178 53.3817 24.6764L52.2061 26.2944ZM42 23C40.1872 23 38.6333 22.9999 37.2991 23.0456L37.3676 25.0444C38.6602 25.0001 40.1761 25 42 25V23ZM37.2991 23.0456C34.3869 23.1454 32.2909 23.4612 30.6183 24.6764L31.7939 26.2944C32.9357 25.4649 34.4801 25.1433 37.3676 25.0444L37.2991 23.0456ZM36.3333 24.045C36.3333 25.4968 36.3293 26.1145 36.2499 26.6158L38.2253 26.9287C38.3354 26.2334 38.3333 25.4235 38.3333 24.045L36.3333 24.045ZM29 38C29 36.1761 29.0001 34.6602 29.0444 33.3676L27.0456 33.2991C26.9999 34.6333 27 36.1872 27 38H29ZM29.0444 33.3676C29.1433 30.4801 29.4649 28.9357 30.2944 27.7939L28.6764 26.6183C27.4612 28.2909 27.1454 30.3869 27.0456 33.2991L29.0444 33.3676ZM28.045 34.3333C29.4235 34.3333 30.2334 34.3354 30.9287 34.2253L30.6158 32.2499C30.1145 32.3293 29.4968 32.3333 28.045 32.3333L28.045 34.3333ZM38.8889 40.5556H48.2222V38.5556H38.8889V40.5556ZM44.5556 44.2222V34.8889H42.5556V44.2222H44.5556Z" fill="white"/>
<defs>
<filter id="filter0_d_111_152" x="0" y="0" width="84" height="84" filterUnits="userSpaceOnUse" color-interpolation-filters="sRGB">
<feFlood flood-opacity="0" result="BackgroundImageFix"/>
<feColorMatrix in="SourceAlpha" type="matrix" values="0 0 0 0 0 0 0 0 0 0 0 0 0 0 0 0 0 0 127 0" result="hardAlpha"/>
<feOffset dy="4"/>
<feGaussianBlur stdDeviation="5"/>
<feComposite in2="hardAlpha" operator="out"/>
<feColorMatrix type="matrix" values="0 0 0 0 0.270588 0 0 0 0 0.478431 0 0 0 0 0.984314 0 0 0 0.3 0"/>
<feBlend mode="normal" in2="BackgroundImageFix" result="effect1_dropShadow_111_152"/>
<feBlend mode="normal" in="SourceGraphic" in2="effect1_dropShadow_111_152" result="shape"/>
</filter>
</defs>
</svg>
