<svg width="36" height="36" viewBox="0 0 36 36" fill="none" xmlns="http://www.w3.org/2000/svg">
<rect width="36" height="36" rx="12" fill="#FF9950" fill-opacity="0.12"/>
<path d="M14.25 20C14.25 19.5858 14.5858 19.25 15 19.25H21C21.4142 19.25 21.75 19.5858 21.75 20C21.75 20.4142 21.4142 20.75 21 20.75H15C14.5858 20.75 14.25 20.4142 14.25 20Z" fill="#FF9950"/>
<path fillRule="evenodd" clipRule="evenodd" d="M15 7.25C15.4142 7.25 15.75 7.58579 15.75 8V9.26061C16.4192 9.25 17.1628 9.25 17.9889 9.25H18.0111C18.8372 9.25 19.5808 9.25 20.25 9.26061V8C20.25 7.58579 20.5858 7.25 21 7.25C21.4142 7.25 21.75 7.58579 21.75 8V9.31358C23.2619 9.40837 24.4234 9.65335 25.3798 10.3482C25.8679 10.7028 26.2972 11.1321 26.6518 11.6202C27.4537 12.7239 27.6564 14.1009 27.7206 15.9743C27.75 16.8315 27.75 17.8289 27.75 18.989V19.011C27.75 20.1711 27.75 21.1685 27.7206 22.0257C27.6564 23.8991 27.4537 25.2761 26.6518 26.3798C26.2972 26.8679 25.8679 27.2972 25.3798 27.6518C24.2761 28.4537 22.8991 28.6564 21.0257 28.7206C20.1684 28.75 19.171 28.75 18.0108 28.75H17.9547C16.1182 28.75 14.6786 28.75 13.5365 28.6263C12.3709 28.5 11.4266 28.2377 10.6202 27.6518C10.1321 27.2972 9.70281 26.8679 9.34815 26.3798C8.76232 25.5734 8.50001 24.6291 8.37373 23.4635C8.24999 22.3214 8.24999 20.8818 8.25 19.0452L8.25 18.9889C8.25 17.8289 8.25 16.8315 8.27937 15.9743C8.34356 14.1009 8.5463 12.7239 9.34815 11.6202C9.70281 11.1321 10.1321 10.7028 10.6202 10.3482C11.5766 9.65335 12.7381 9.40837 14.25 9.31358V8C14.25 7.58579 14.5858 7.25 15 7.25ZM14.25 10.8173C12.8879 10.9109 12.1018 11.1259 11.5019 11.5617C11.1411 11.8238 10.8238 12.1411 10.5617 12.5019C10.1259 13.1018 9.91092 13.8879 9.81725 15.25H26.1827C26.0891 13.8879 25.8741 13.1018 25.4383 12.5019C25.1762 12.1411 24.8589 11.8238 24.4981 11.5617C23.8982 11.1259 23.1121 10.9109 21.75 10.8173V11C21.75 11.4142 21.4142 11.75 21 11.75C20.5858 11.75 20.25 11.4142 20.25 11V10.7608C19.5904 10.75 18.8476 10.75 18 10.75C17.1524 10.75 16.4096 10.75 15.75 10.7608V11C15.75 11.4142 15.4142 11.75 15 11.75C14.5858 11.75 14.25 11.4142 14.25 11V10.8173ZM26.2392 16.75H9.76079C9.75005 17.4096 9.75 18.1524 9.75 19C9.75 20.8916 9.75103 22.25 9.865 23.302C9.97745 24.3399 10.1926 24.9901 10.5617 25.4981C10.8238 25.8589 11.1411 26.1762 11.5019 26.4383C12.0099 26.8074 12.6601 27.0225 13.698 27.135C14.75 27.249 16.1084 27.25 18 27.25C18.8483 27.25 19.5918 27.2499 20.2518 27.2392C20.2562 26.7645 20.271 26.4151 20.3208 26.1005C20.7105 23.6401 22.6401 21.7105 25.1005 21.3208C25.4151 21.271 25.7645 21.2562 26.2392 21.2518C26.25 20.5918 26.25 19.8483 26.25 19C26.25 18.1524 26.25 17.4096 26.2392 16.75ZM26.1826 22.7528C25.7776 22.7575 25.5402 22.7699 25.3352 22.8023C23.5166 23.0904 22.0904 24.5166 21.8023 26.3352C21.7699 26.5402 21.7575 26.7776 21.7528 27.1826C23.1131 27.0888 23.8986 26.8738 24.4981 26.4383C24.8589 26.1762 25.1762 25.8589 25.4383 25.4981C25.8738 24.8986 26.0888 24.1131 26.1826 22.7528Z" fill="#FF9950"/>
</svg>
