<svg width="36" height="36" viewBox="0 0 36 36" fill="none" xmlns="http://www.w3.org/2000/svg">
<rect width="36" height="36" rx="12" fill="#3DD7B8"/>
<path d="M17.6692 24.9506L18.1051 25.5609L17.6692 24.9506ZM17.7222 24.9128L17.2902 24.2997L17.7222 24.9128ZM20.5703 24.0001L20.5751 24.7501L20.5703 24.0001ZM13.3959 25.5103L14.0923 25.7888L13.3959 25.5103ZM15.0585 26.8154L14.6226 26.2051H14.6226L15.0585 26.8154ZM27.798 20.4069L28.5177 20.6179L27.798 20.4069ZM24.4069 23.798L24.6179 24.5177L24.4069 23.798ZM10.73 8.54497L11.0705 9.21322L10.73 8.54497ZM8.54497 10.73L9.21322 11.0705L8.54497 10.73ZM25.27 8.54497L24.9295 9.21322L25.27 8.54497ZM27.455 10.73L26.7868 11.0705L27.455 10.73ZM13.4697 15.4697C13.1768 15.7626 13.1768 16.2374 13.4697 16.5303C13.7626 16.8232 14.2374 16.8232 14.5303 16.5303L13.4697 15.4697ZM22.5303 16.5303C22.8232 16.2374 22.8232 15.7626 22.5303 15.4697C22.2374 15.1768 21.7626 15.1768 21.4697 15.4697L22.5303 16.5303ZM18 16L17.2885 16.2372L18 16ZM20 7.25H16V8.75H20V7.25ZM7.25 16V20.2283H8.75V16H7.25ZM28.75 17.1842V16H27.25V17.1842H28.75ZM11.7717 24.75H12.3734V23.25H11.7717V24.75ZM15.4944 27.4257L18.1051 25.5609L17.2333 24.3403L14.6226 26.2051L15.4944 27.4257ZM20.6354 24.75H21.1842V23.25H20.6354V24.75ZM18.1051 25.5609C18.1325 25.5413 18.1436 25.5334 18.1543 25.5259L17.2902 24.2997C17.2747 24.3107 17.2592 24.3218 17.2333 24.3403L18.1051 25.5609ZM20.6354 23.25C20.6036 23.25 20.5845 23.25 20.5655 23.2501L20.5751 24.7501C20.5882 24.75 20.6018 24.75 20.6354 24.75V23.25ZM18.1543 25.5259C18.8632 25.0264 19.7079 24.7556 20.5751 24.7501L20.5655 23.2501C19.3922 23.2576 18.2493 23.6239 17.2902 24.2997L18.1543 25.5259ZM12.3734 24.75C12.6219 24.75 12.7918 25.001 12.6995 25.2317L14.0923 25.7888C14.5787 24.5728 13.6831 23.25 12.3734 23.25V24.75ZM12.6995 25.2317C12.0129 26.9484 13.9899 28.5003 15.4944 27.4257L14.6226 26.2051C14.3371 26.409 13.962 26.1145 14.0923 25.7888L12.6995 25.2317ZM27.25 17.1842C27.25 18.9261 27.2424 19.6363 27.0783 20.1958L28.5177 20.6179C28.7576 19.7996 28.75 18.8206 28.75 17.1842H27.25ZM21.1842 24.75C22.8206 24.75 23.7996 24.7576 24.6179 24.5177L24.1958 23.0783C23.6363 23.2424 22.9261 23.25 21.1842 23.25V24.75ZM27.0783 20.1958C26.671 21.5848 25.5848 22.671 24.1958 23.0783L24.6179 24.5177C26.4971 23.9667 27.9667 22.4971 28.5177 20.6179L27.0783 20.1958ZM7.25 20.2283C7.25 22.7256 9.27441 24.75 11.7717 24.75V23.25C10.1028 23.25 8.75 21.8972 8.75 20.2283H7.25ZM16 7.25C14.6122 7.25 13.5263 7.24942 12.6549 7.32061C11.7748 7.39252 11.0477 7.54138 10.3896 7.87671L11.0705 9.21322C11.482 9.00359 11.9897 8.87996 12.7771 8.81563C13.5732 8.75058 14.5875 8.75 16 8.75V7.25ZM8.75 16C8.75 14.5875 8.75058 13.5732 8.81563 12.7771C8.87996 11.9897 9.00359 11.482 9.21322 11.0705L7.87671 10.3896C7.54138 11.0477 7.39252 11.7748 7.32061 12.6549C7.24942 13.5263 7.25 14.6122 7.25 16H8.75ZM10.3896 7.87671C9.30762 8.42798 8.42798 9.30762 7.87671 10.3896L9.21322 11.0705C9.62068 10.2709 10.2709 9.62068 11.0705 9.21322L10.3896 7.87671ZM20 8.75C21.4125 8.75 22.4268 8.75058 23.2229 8.81563C24.0103 8.87996 24.518 9.00359 24.9295 9.21322L25.6104 7.87671C24.9523 7.54138 24.2252 7.39252 23.3451 7.32061C22.4737 7.24942 21.3878 7.25 20 7.25V8.75ZM28.75 16C28.75 14.6122 28.7506 13.5263 28.6794 12.6549C28.6075 11.7748 28.4586 11.0477 28.1233 10.3896L26.7868 11.0705C26.9964 11.482 27.12 11.9897 27.1844 12.7771C27.2494 13.5732 27.25 14.5875 27.25 16H28.75ZM24.9295 9.21322C25.7291 9.62068 26.3793 10.2709 26.7868 11.0705L28.1233 10.3896C27.572 9.30762 26.6924 8.42798 25.6104 7.87671L24.9295 9.21322ZM14.5303 16.5303L15.2943 15.7664L14.2336 14.7057L13.4697 15.4697L14.5303 16.5303ZM21.7664 17.2943L22.5303 16.5303L21.4697 15.4697L20.7057 16.2336L21.7664 17.2943ZM17.2885 16.2372C17.9242 18.1444 20.3448 18.7158 21.7664 17.2943L20.7057 16.2336C20.0726 16.8667 18.9946 16.6122 18.7115 15.7628L17.2885 16.2372ZM15.2943 15.7664C15.9274 15.1333 17.0054 15.3878 17.2885 16.2372L18.7115 15.7628C18.0758 13.8556 15.6552 13.2842 14.2336 14.7057L15.2943 15.7664Z" fill="white"/>
</svg>
