<svg width="36" height="36" viewBox="0 0 36 36" fill="none" xmlns="http://www.w3.org/2000/svg">
<path d="M13 12C13 9.23858 15.2386 7 18 7C20.7614 7 23 9.23858 23 12V12.0117M13 12C13.6278 11.9881 14.3327 12 15.1603 12H20.8396C21.662 12 22.375 12 23 12.0117M13 12C11.2811 12.0326 10.2182 12.1666 9.39197 12.6228C8.43086 13.1534 7.67195 13.985 7.23103 14.9884M7.23103 14.9884L10.8076 18.565C14.1409 21.8983 15.8076 23.565 17.8786 23.565C19.9497 23.565 21.6164 21.8983 24.9497 18.5649L28.5824 14.9323C28.618 14.8966 28.6573 14.8649 28.6997 14.8376V14.8376M7.23103 14.9884C7.21745 15.0193 7.20418 15.0504 7.1912 15.0816C6.69682 16.2715 6.86763 17.8088 7.20926 20.8835C7.48888 23.4 7.62869 24.6583 8.20918 25.6079C8.72054 26.4444 9.46653 27.1121 10.3544 27.5279C11.3622 28 12.6283 28 15.1603 28H20.8396C23.3717 28 24.6377 28 25.6456 27.5279C26.5334 27.1121 27.2794 26.4444 27.7908 25.6079C28.3713 24.6583 28.5111 23.4 28.7907 20.8835C29.1323 17.8088 29.3032 16.2715 28.8088 15.0816C28.7745 14.9991 28.7381 14.9178 28.6997 14.8376M23 12.0117C24.726 12.044 25.7798 12.1655 26.608 12.6228C27.5205 13.1265 28.2508 13.9017 28.6997 14.8376" stroke="#6D737B" stroke-width="1.5"/>
</svg>
