<svg width="128" height="128" viewBox="0 0 128 128" fill="none" xmlns="http://www.w3.org/2000/svg">
<mask id="mask0_3567_16135" style="mask-type:alpha" maskUnits="userSpaceOnUse" x="0" y="0" width="128" height="128">
<path d="M128 64C128 99.3462 99.3462 128 64 128C28.6538 128 0 99.3462 0 64C0 28.6538 28.6538 0 64 0C99.3462 0 128 28.6538 128 64Z" fill="#C4C4C4"/>
</mask>
<g mask="url(#mask0_3567_16135)">
<rect x="-9.96875" width="147.41" height="147.41" fill="#ABE3F4"/>
<path d="M98.3592 57.1804C98.3592 86.1528 79.671 120.656 63.7362 120.656C47.8015 120.656 29.1133 86.1528 29.1133 57.1804C29.1133 28.2081 47.8015 17.8362 63.7362 17.8362C79.671 17.8362 98.3592 28.2081 98.3592 57.1804Z" fill="black"/>
<path d="M34.5088 65.8899C34.148 74.4846 39.5498 77.6973 42.0336 78.2294L39.952 59.2788C36.8293 60.6763 34.6392 62.7842 34.5088 65.8899Z" fill="#B47B62"/>
<path d="M92.6068 66.4281C92.9676 75.0228 86.5166 78.2355 84.0328 78.7675L87.344 59.8033C90.4667 61.2008 92.4764 63.3224 92.6068 66.4281Z" fill="#B47B62"/>
<path fillRule="evenodd" clipRule="evenodd" d="M39.8669 98.0461C44.9081 98.0461 48.9948 93.9594 48.9948 88.9182C48.9948 83.877 44.9081 79.7903 39.8669 79.7903C34.8257 79.7903 30.7391 83.877 30.7391 88.9182C30.7391 93.9594 34.8257 98.0461 39.8669 98.0461ZM39.8669 101.246C46.6754 101.246 52.1948 95.7267 52.1948 88.9182C52.1948 82.1097 46.6754 76.5903 39.8669 76.5903C33.0584 76.5903 27.5391 82.1097 27.5391 88.9182C27.5391 95.7267 33.0584 101.246 39.8669 101.246Z" fill="#FF9E00"/>
<path d="M51.147 105.705L16.2617 119.082L49.8355 147.672H78.1634L111.737 119.082L75.8027 105.705H51.147Z" fill="#FF3E3E"/>
<path fillRule="evenodd" clipRule="evenodd" d="M87.6052 99.0951C92.6464 99.0951 96.7331 95.0085 96.7331 89.9673C96.7331 84.9261 92.6464 80.8394 87.6052 80.8394C82.564 80.8394 78.4773 84.9261 78.4773 89.9673C78.4773 95.0085 82.564 99.0951 87.6052 99.0951ZM87.6052 102.295C94.4137 102.295 99.9331 96.7758 99.9331 89.9673C99.9331 83.1588 94.4137 77.6394 87.6052 77.6394C80.7967 77.6394 75.2773 83.1588 75.2773 89.9673C75.2773 96.7758 80.7967 102.295 87.6052 102.295Z" fill="#FF9E00"/>
<path d="M51.4523 94.4263C52.0766 94.4263 75.5202 94.4263 75.5202 94.4263C76.2525 107.176 75.6399 114.995 72.846 130.098H53.8591C50.9575 116.601 50.8281 94.4263 51.4523 94.4263Z" fill="#B48062"/>
<path d="M87.3448 59.8034L41.7054 41.1804C39.3972 47.0558 38.995 57.9673 39.3448 62.6886C39.7067 69.8306 40.5669 74.9704 41.837 79.1669C43.8991 85.9799 47.7967 92.3316 53.2473 96.9098C54.7439 98.1669 56.3526 99.1119 58.3759 99.7823C61.1661 100.707 64.07 100.837 66.932 100.167C72.2148 98.9311 76.7036 95.0126 79.6496 90.4567C80.2135 89.5847 80.7447 88.6745 81.2704 87.6868C83.6462 83.2227 85.0561 78.3091 85.9737 73.3362C86.8778 68.4357 87.2789 64.7492 87.3448 59.8034Z" fill="#D09779"/>
<ellipse cx="51.9343" cy="65.0493" rx="2.09836" ry="2.09836" fill="black"/>
<circle cx="74.7546" cy="65.0493" r="2.09836" fill="black"/>
<path d="M69.5905 59.497C72.9861 58.0192 76.8445 59.6438 78.5733 60.7815C78.7051 60.8682 78.8652 60.8995 79.0187 60.8631C79.4197 60.7681 79.5738 60.2815 79.2815 59.991C75.6065 56.3389 71.3168 57.3783 69.0902 58.657C68.7882 58.8304 68.789 59.2495 69.0736 59.4502C69.2245 59.5565 69.4212 59.5707 69.5905 59.497Z" fill="black"/>
<path d="M48.0959 60.3134C51.1792 58.2353 55.3124 59.044 57.232 59.7954C57.3726 59.8505 57.5285 59.8498 57.6665 59.7885C58.0443 59.6207 58.0996 59.11 57.7511 58.8877C53.4535 56.1463 49.4294 57.9491 47.4692 59.5915C47.2021 59.8152 47.2834 60.2287 47.6039 60.3655C47.7652 60.4343 47.9505 60.4114 48.0959 60.3134Z" fill="black"/>
<path d="M60.3195 78.1017L59.7522 77.6296C59.3277 77.2763 59.5798 76.5903 60.1342 76.5903H66.8128C67.3843 76.5903 67.6261 77.3117 67.1681 77.6505L66.4272 78.1987C66.0425 78.4832 65.619 78.7121 65.1693 78.8784L65.0741 78.9136C63.994 79.3132 62.8047 79.3132 61.7246 78.9136C61.2129 78.7244 60.7377 78.4498 60.3195 78.1017Z" fill="#B47B62"/>
<path d="M68.6629 85.3083C65.1477 86.458 60.4583 85.9343 57.8929 85.3879C57.4982 85.3038 57.1042 85.5485 57.0188 85.9428C56.9578 86.2245 57.0725 86.5172 57.3147 86.6735C62.0503 89.7309 66.7355 88.8377 69.5617 86.7766C69.8523 86.5647 69.9515 86.1833 69.8294 85.8451C69.6611 85.3788 69.134 85.1542 68.6629 85.3083Z" fill="#B47B62"/>
</g>
</svg>
