<svg width="16" height="16" viewBox="0 0 16 16" fill="none" xmlns="http://www.w3.org/2000/svg">
<path fillRule="evenodd" clipRule="evenodd" d="M6.93336 0C3.10417 0 0 3.10417 0 6.93336C0 10.7626 3.10417 13.8667 6.93336 13.8667C10.7626 13.8667 13.8667 10.7626 13.8667 6.93336C13.8667 3.10417 10.7626 0 6.93336 0ZM1.06667 6.93336C1.06667 3.69328 3.69328 1.06667 6.93336 1.06667C10.1734 1.06667 12.8001 3.69328 12.8001 6.93336C12.8001 10.1734 10.1734 12.8001 6.93336 12.8001C3.69328 12.8001 1.06667 10.1734 1.06667 6.93336Z" fill="black"/>
<path d="M12.9995 12.2452C12.7912 12.0369 12.4535 12.0369 12.2452 12.2452C12.0369 12.4535 12.0369 12.7912 12.2452 12.9995L15.0896 15.8439C15.2979 16.0522 15.6355 16.0522 15.8438 15.8439C16.0521 15.6356 16.0521 15.2979 15.8438 15.0896L12.9995 12.2452Z" fill="black"/>
</svg>
