<svg width="36" height="36" viewBox="0 0 36 36" fill="none" xmlns="http://www.w3.org/2000/svg">
<rect width="36" height="36" rx="12" fill="#3AACFF"/>
<path d="M11.9685 7.83568C12.292 7.57692 12.3444 7.10495 12.0857 6.78151C11.8269 6.45806 11.3549 6.40562 11.0315 6.66438L8.53148 8.66438C8.20803 8.92313 8.15559 9.3951 8.41435 9.71855C8.67311 10.042 9.14507 10.0944 9.46852 9.83568L11.9685 7.83568Z" fill="white"/>
<path d="M24.9685 6.66438C24.6451 6.40562 24.1731 6.45806 23.9143 6.78151C23.6556 7.10495 23.708 7.57692 24.0315 7.83568L26.5315 9.83568C26.8549 10.0944 27.3269 10.042 27.5857 9.71855C27.8444 9.3951 27.792 8.92313 27.4685 8.66438L24.9685 6.66438Z" fill="white"/>
<path d="M18.75 14C18.75 13.5858 18.4142 13.25 18 13.25C17.5858 13.25 17.25 13.5858 17.25 14L17.25 16.7255C17.25 17.2593 17.25 17.7133 17.2871 18.0901C17.3267 18.4916 17.4125 18.8636 17.6184 19.2203C17.8244 19.577 18.1037 19.8374 18.4315 20.0723C18.7393 20.2929 19.1325 20.5199 19.5949 20.7868L20.2232 21.1496C20.5819 21.3567 21.0406 21.2337 21.2477 20.875C21.4548 20.5163 21.3319 20.0576 20.9731 19.8505L20.375 19.5052C19.8744 19.2161 19.5459 19.0256 19.3054 18.8531C19.0782 18.6903 18.9795 18.5777 18.9175 18.4703C18.8555 18.3629 18.8073 18.2212 18.7799 17.943C18.7508 17.6484 18.75 17.2687 18.75 16.6906L18.75 14Z" fill="white"/>
<path fillRule="evenodd" clipRule="evenodd" d="M18 7.25003C12.0629 7.25003 7.25 12.063 7.25 18C7.25 23.9371 12.0629 28.75 18 28.75C23.9371 28.75 28.75 23.9371 28.75 18C28.75 12.063 23.9371 7.25003 18 7.25003ZM8.75 18C8.75 12.8914 12.8914 8.75003 18 8.75003C23.1086 8.75003 27.25 12.8914 27.25 18C27.25 23.1087 23.1086 27.25 18 27.25C12.8914 27.25 8.75 23.1087 8.75 18Z" fill="white"/>
</svg>
