<svg width="36" height="36" viewBox="0 0 36 36" fill="none" xmlns="http://www.w3.org/2000/svg">
<rect width="36" height="36" rx="12" fill="#457AFB"/>
<path d="M20.25 13.75C20.25 14.9926 19.2426 16 18 16V17.5C20.0711 17.5 21.75 15.8211 21.75 13.75H20.25ZM18 16C16.7574 16 15.75 14.9926 15.75 13.75H14.25C14.25 15.8211 15.9289 17.5 18 17.5V16ZM15.75 13.75C15.75 12.5074 16.7574 11.5 18 11.5V10C15.9289 10 14.25 11.6789 14.25 13.75H15.75ZM18 11.5C19.2426 11.5 20.25 12.5074 20.25 13.75H21.75C21.75 11.6789 20.0711 10 18 10V11.5ZM15 20.5H21V19H15V20.5ZM21 25H15V26.5H21V25ZM15 25C13.7574 25 12.75 23.9926 12.75 22.75H11.25C11.25 24.8211 12.9289 26.5 15 26.5V25ZM23.25 22.75C23.25 23.9926 22.2426 25 21 25V26.5C23.0711 26.5 24.75 24.8211 24.75 22.75H23.25ZM21 20.5C22.2426 20.5 23.25 21.5074 23.25 22.75H24.75C24.75 20.6789 23.0711 19 21 19V20.5ZM15 19C12.9289 19 11.25 20.6789 11.25 22.75H12.75C12.75 21.5074 13.7574 20.5 15 20.5V19Z" fill="white"/>
<path d="M23 11C23 11 26 11 26 14C26 17 23 17 23 17" stroke="white" stroke-width="1.5"/>
<path d="M13 17C13 17 10 17 10 14C10 11 13 11 13 11" stroke="white" stroke-width="1.5"/>
<path d="M26 19C26 19 29 19 29 22C29 25 26 25 26 25" stroke="white" stroke-width="1.5"/>
<path d="M10 25C10 25 7 25 7 22C7 19 10 19 10 19" stroke="white" stroke-width="1.5"/>
</svg>
